<?xml version="1.0" encoding="UTF-8"?>
<svg id="Layer_1" data-name="Layer 1" xmlns="http://www.w3.org/2000/svg" width="1.6in" height="1.22in" viewBox="0 0 115.22 87.67">
  <defs>
    <style>
      .cls-1 {
        fill: #231f20;
      }
    </style>
  </defs>
  <path class="cls-1" d="M115.22,67.58c0,.44-.35.79-.78.79l-11.22.86c-.76.02-1.81.18-2.8.84-2.06,1.39-2.25,3.85-2.26,4.13l-.87,12.74c-.01.14-.06.28-.14.39-.03.04-.05.07-.08.1-.14.14-.37.24-.57.24-.4,0-.78-.39-.78-.78l-.87-12.68c-.03-.46-.3-2.81-2.27-4.14-.99-.66-2.04-.82-2.75-.84l-9.88-.86c-.31-.03-.61-.3-.69-.61h-.01c-.05-.23,0-.47.15-.66.14-.18.39-.3.61-.3l9.77-.86c.46-.01.85-.07,1.22-.16.58-.14,1.11-.37,1.58-.68,1.97-1.33,2.24-3.69,2.27-4.15l.61-19.81c-3.51.88-7.01,1.33-10.42,1.33-3.67,0-7.24-.52-10.62-1.55-.41-.13-.83-.26-1.25-.41l.35,11.8c.05.61.35,2.82,2.27,4.1.8.54,1.72.82,2.74.84l11.33.87c.18.02.36.11.49.24h.01c.13.13.23.35.23.55,0,.43-.36.78-.79.78l-11.22.86c-.75.02-1.8.18-2.79.84-1.97,1.33-2.24,3.69-2.27,4.15l-.86,12.72c-.03.37-.41.73-.79.73-.13,0-.37-.03-.57-.24-.12-.13-.21-.36-.21-.54l-.88-12.68c0-.28-.2-2.76-2.26-4.14-.99-.66-2.04-.82-2.75-.83l-9.87-.87c-.38-.04-.73-.4-.73-.78,0-.21.07-.35.1-.39.03-.06.08-.12.13-.17.13-.14.36-.23.55-.23l9.77-.86c.46-.01.85-.06,1.22-.16.57-.14,1.1-.37,1.59-.68,2.05-1.39,2.24-3.86,2.25-4.13l.39-12.79c-6.13-2.72-10.38-6.83-14.49-10.82-3.83-3.72-7.77-7.55-13.24-10.15l.69,22.79c.01.26.2,2.73,2.26,4.12.99.66,2.04.82,2.74.83l11.33.87c.1.01.21.04.3.09.13.07.25.18.32.3.07.12.11.26.11.39,0,.44-.35.79-.78.79l-11.22.86c-.76.02-1.81.18-2.8.84-2.06,1.38-2.25,3.85-2.26,4.13l-.88,12.73c-.01.18-.1.39-.22.51-.14.14-.36.23-.55.23-.44,0-.79-.35-.79-.78l-.87-12.68c-.03-.46-.3-2.82-2.27-4.14-.99-.66-2.04-.82-2.75-.84l-9.88-.87c-.08,0-.18-.03-.27-.07-.12-.06-.23-.14-.3-.25-.1-.13-.16-.29-.16-.45,0-.28.14-.46.22-.54,0,0,.02-.02.03-.02.13-.14.35-.23.54-.23l9.77-.87c.46-.01.85-.06,1.22-.15.57-.14,1.1-.37,1.58-.69,1.97-1.32,2.24-3.68,2.27-4.14l.72-23.59c-.82-.33-1.68-.63-2.55-.89-3.2-.97-6.6-1.46-10.13-1.46-3.18,0-6.5.39-9.86,1.18l.49,16.11c.03.43.3,2.8,2.26,4.12.99.66,2.05.82,2.76.83l11.32.87c.21.02.46.15.58.32.09.13.15.3.15.46,0,.44-.35.79-.79.79l-11.12.86s-.1.01-.15.01c-.69,0-1.74.16-2.75.83-1.96,1.33-2.23,3.68-2.26,4.14l-.86,12.72c-.03.38-.41.74-.79.74-.27,0-.51-.13-.65-.35-.01,0-.01-.02-.02-.03-.08-.12-.12-.27-.12-.4l-.87-12.68c-.01-.29-.2-2.75-2.26-4.14-1-.67-2.05-.82-2.75-.83-.05,0-.1,0-.15-.02l-9.72-.85c-.37-.04-.73-.4-.73-.78,0-.12.02-.22.06-.31.04-.09.09-.18.17-.25.13-.14.35-.23.54-.23l9.78-.86c.46-.02.86-.07,1.22-.16.57-.14,1.1-.37,1.59-.69,2.05-1.37,2.24-3.85,2.25-4.12l.72-23.86.15-6.52c.01-.32.22-.59.53-.67,3.87-1.06,7.54-1.58,11.22-1.58s7.21.53,10.64,1.56c8.31,2.51,13.4,7.46,18.33,12.24,4.83,4.68,9.78,9.47,17.68,11.87,3.35,1.03,6.69,1.53,10.19,1.53s7.28-.52,11.08-1.56c.06-.02.12-.02.18-.02.13,0,.27.04.4.1.25.13.41.39.41.68l.11,5.74c.03.07.04.15.04.23l.87,28.61c.01.26.2,2.73,2.26,4.12.99.66,2.04.82,2.75.83l11.32.87c.1.01.21.04.31.1.13.06.24.17.31.3.07.12.11.25.11.38Z"/>
</svg>